<svg xmlns="http://www.w3.org/2000/svg" width="1280" height="900" viewBox="0 0 1280 900">
<style>
text{font-family:Arial,Helvetica,sans-serif;fill:#202124}
.title{font-size:28px;font-weight:700}
.subtitle{font-size:16px;fill:#4a4f55}
.axis{font-size:15px;fill:#30343a}
.tick{font-size:13px;fill:#4a4f55}
.note{font-size:13px;fill:#4a4f55}
.bar{fill:#2f6f9f}
.bar:hover{fill:#c85a28}
.grid{stroke:#d8dde3;stroke-width:1}
.frame{stroke:#7f8790;stroke-width:1;fill:none}
</style>
<rect x="0" y="0" width="1280" height="900" fill="#ffffff"/>
<text x="34.0" y="44.0" class="title">IRPF 1928 - Distrito Federal - renda global liquida</text>
<text x="34.0" y="72.0" class="subtitle">Souza Reis, F. T. de. O imposto de renda em seis annos de adaptacao no Brasil, 1924-1929. Rio de Janeiro, 1930, p. 33, Quadro n. 12.</text>
<line x1="100" y1="590.0" x2="1238" y2="590.0" class="grid"/>
<text x="88.0" y="594.0" class="tick" text-anchor="end">0</text>
<line x1="100" y1="435.3" x2="1238" y2="435.3" class="grid"/>
<text x="88.0" y="439.3" class="tick" text-anchor="end">5k</text>
<line x1="100" y1="280.7" x2="1238" y2="280.7" class="grid"/>
<text x="88.0" y="284.7" class="tick" text-anchor="end">10k</text>
<line x1="100" y1="126.0" x2="1238" y2="126.0" class="grid"/>
<text x="88.0" y="130.0" class="tick" text-anchor="end">15k</text>
<rect x="100" y="126" width="1138" height="464" class="frame"/>
<rect class="bar" x="102.5" y="163.2" width="51.9" height="426.8"><title>Ate 6:000$000: 13.797</title></rect>
<text class="tick" transform="translate(128.4,610.0) rotate(58)" text-anchor="start">Ate 6:000$000</text>
<rect class="bar" x="159.4" y="294.8" width="51.9" height="295.2"><title>De 6:000$000 a 30:000$000: 9.543</title></rect>
<text class="tick" transform="translate(185.3,610.0) rotate(58)" text-anchor="start">De 6:000$000 a 30:000$000</text>
<rect class="bar" x="216.3" y="540.7" width="51.9" height="49.3"><title>De 30:000$000 a 60:000$000: 1.594</title></rect>
<text class="tick" transform="translate(242.2,610.0) rotate(58)" text-anchor="start">De 30:000$000 a 60:000$000</text>
<rect class="bar" x="273.2" y="574.8" width="51.9" height="15.2"><title>De 60:000$000 a 90:000$000: 492</title></rect>
<text class="tick" transform="translate(299.1,610.0) rotate(58)" text-anchor="start">De 60:000$000 a 90:000$000</text>
<rect class="bar" x="330.1" y="582.9" width="51.9" height="7.1"><title>De 90:000$000 a 120:000$000: 231</title></rect>
<text class="tick" transform="translate(356.1,610.0) rotate(58)" text-anchor="start">De 90:000$000 a 120:000$000</text>
<rect class="bar" x="387.0" y="585.6" width="51.9" height="4.4"><title>De 120:000$000 a 150:000$000: 141</title></rect>
<text class="tick" transform="translate(412.9,610.0) rotate(58)" text-anchor="start">De 120:000$000 a 150:000$000</text>
<rect class="bar" x="443.9" y="586.6" width="51.9" height="3.4"><title>De 150:000$000 a 200:000$000: 111</title></rect>
<text class="tick" transform="translate(469.8,610.0) rotate(58)" text-anchor="start">De 150:000$000 a 200:000$000</text>
<rect class="bar" x="500.8" y="588.3" width="51.9" height="1.7"><title>De 200:000$000 a 250:000$000: 54</title></rect>
<text class="tick" transform="translate(526.8,610.0) rotate(58)" text-anchor="start">De 200:000$000 a 250:000$000</text>
<rect class="bar" x="557.7" y="588.7" width="51.9" height="1.3"><title>De 250:000$000 a 300:000$000: 41</title></rect>
<text class="tick" transform="translate(583.7,610.0) rotate(58)" text-anchor="start">De 250:000$000 a 300:000$000</text>
<rect class="bar" x="614.6" y="588.9" width="51.9" height="1.1"><title>De 300:000$000 a 400:000$000: 34</title></rect>
<text class="tick" transform="translate(640.6,610.0) rotate(58)" text-anchor="start">De 300:000$000 a 400:000$000</text>
<rect class="bar" x="671.5" y="589.3" width="51.9" height="0.7"><title>De 400:000$000 a 500:000$000: 23</title></rect>
<text class="tick" transform="translate(697.5,610.0) rotate(58)" text-anchor="start">De 400:000$000 a 500:000$000</text>
<rect class="bar" x="728.4" y="589.7" width="51.9" height="0.3"><title>De 500:000$000 a 600:000$000: 11</title></rect>
<text class="tick" transform="translate(754.4,610.0) rotate(58)" text-anchor="start">De 500:000$000 a 600:000$000</text>
<rect class="bar" x="785.3" y="589.8" width="51.9" height="0.2"><title>De 600:000$000 a 700:000$000: 7</title></rect>
<text class="tick" transform="translate(811.2,610.0) rotate(58)" text-anchor="start">De 600:000$000 a 700:000$000</text>
<rect class="bar" x="842.2" y="590.0" width="51.9" height="0.0"><title>De 700:000$000 a 800:000$000: 1</title></rect>
<text class="tick" transform="translate(868.1,610.0) rotate(58)" text-anchor="start">De 700:000$000 a 800:000$000</text>
<rect class="bar" x="899.1" y="589.9" width="51.9" height="0.1"><title>De 800:000$000 a 900:000$000: 3</title></rect>
<text class="tick" transform="translate(925.1,610.0) rotate(58)" text-anchor="start">De 800:000$000 a 900:000$000</text>
<rect class="bar" x="956.0" y="589.9" width="51.9" height="0.1"><title>De 900:000$000 a 1.000:000$000: 3</title></rect>
<text class="tick" transform="translate(982.0,610.0) rotate(58)" text-anchor="start">De 900:000$000 a 1.000:000$...</text>
<rect class="bar" x="1012.9" y="589.8" width="51.9" height="0.2"><title>De 1.000:000$000 a 1.500:000$000: 7</title></rect>
<text class="tick" transform="translate(1038.8,610.0) rotate(58)" text-anchor="start">De 1.000:000$000 a 1.500:00...</text>
<rect class="bar" x="1069.8" y="589.9" width="51.9" height="0.1"><title>De 1.500:000$000 a 2.500:000$000: 2</title></rect>
<text class="tick" transform="translate(1095.8,610.0) rotate(58)" text-anchor="start">De 1.500:000$000 a 2.500:00...</text>
<rect class="bar" x="1126.7" y="589.9" width="51.9" height="0.1"><title>De 2.500:000$000 a 3.000:000$000: 2</title></rect>
<text class="tick" transform="translate(1152.7,610.0) rotate(58)" text-anchor="start">De 2.500:000$000 a 3.000:00...</text>
<rect class="bar" x="1183.6" y="589.9" width="51.9" height="0.1"><title>Acima de 3.000:000$000: 2</title></rect>
<text class="tick" transform="translate(1209.5,610.0) rotate(58)" text-anchor="start">Acima de 3.000:000$000</text>
<text x="640.0" y="788.0" class="axis" text-anchor="middle">Faixas de renda publicadas (mil-reis)</text>
<text class="axis" transform="translate(28,358.0) rotate(-90)" text-anchor="middle">Pessoas fisicas notificadas</text>
<text x="34.0" y="828.0" class="note">Eixo X: faixas de renda publicadas pela fonte (mil-reis). Eixo Y: pessoas fisicas notificadas. Serie regional: Distrito Federal. Serie do Distrito</text>
<text x="34.0" y="845.0" class="note">Federal; nao comparar diretamente com Brasil. Exercicio 1928 corresponde ao ano-calendario 1927; exercicio 1929 corresponde ao ano-calendario 1928. A</text>
<text x="34.0" y="862.0" class="note">errata do livro corrige o Quadro 12, coluna 3, linha 17, de...</text>
</svg>
