<svg xmlns="http://www.w3.org/2000/svg" width="1280" height="900" viewBox="0 0 1280 900">
<style>
text{font-family:Arial,Helvetica,sans-serif;fill:#202124}
.title{font-size:28px;font-weight:700}
.subtitle{font-size:16px;fill:#4a4f55}
.axis{font-size:15px;fill:#30343a}
.tick{font-size:13px;fill:#4a4f55}
.note{font-size:13px;fill:#4a4f55}
.bar{fill:#2f6f9f}
.bar:hover{fill:#c85a28}
.grid{stroke:#d8dde3;stroke-width:1}
.frame{stroke:#7f8790;stroke-width:1;fill:none}
</style>
<rect x="0" y="0" width="1280" height="900" fill="#ffffff"/>
<text x="34.0" y="44.0" class="title">IRPF 1948 - Brasil - renda liquida</text>
<text x="34.0" y="72.0" class="subtitle">IBGE, Anuario Estatistico do Brasil 1950, p. 496, Tabela b</text>
<line x1="100" y1="590.0" x2="1238" y2="590.0" class="grid"/>
<text x="88.0" y="594.0" class="tick" text-anchor="end">0</text>
<line x1="100" y1="497.2" x2="1238" y2="497.2" class="grid"/>
<text x="88.0" y="501.2" class="tick" text-anchor="end">20k</text>
<line x1="100" y1="404.4" x2="1238" y2="404.4" class="grid"/>
<text x="88.0" y="408.4" class="tick" text-anchor="end">40k</text>
<line x1="100" y1="311.6" x2="1238" y2="311.6" class="grid"/>
<text x="88.0" y="315.6" class="tick" text-anchor="end">60k</text>
<line x1="100" y1="218.8" x2="1238" y2="218.8" class="grid"/>
<text x="88.0" y="222.8" class="tick" text-anchor="end">80k</text>
<line x1="100" y1="126.0" x2="1238" y2="126.0" class="grid"/>
<text x="88.0" y="130.0" class="tick" text-anchor="end">100k</text>
<rect x="100" y="126" width="1138" height="464" class="frame"/>
<rect class="bar" x="102.5" y="417.7" width="70.9" height="172.3"><title>De mais de 24 a 30: 37.136</title></rect>
<text class="tick" transform="translate(137.9,610.0) rotate(58)" text-anchor="start">De mais de 24 a 30</text>
<rect class="bar" x="178.4" y="170.6" width="70.9" height="419.4"><title>De mais de 30 a 60: 90.389</title></rect>
<text class="tick" transform="translate(213.8,610.0) rotate(58)" text-anchor="start">De mais de 30 a 60</text>
<rect class="bar" x="254.2" y="453.1" width="70.9" height="136.9"><title>De mais de 60 a 90: 29.515</title></rect>
<text class="tick" transform="translate(289.7,610.0) rotate(58)" text-anchor="start">De mais de 60 a 90</text>
<rect class="bar" x="330.1" y="524.2" width="70.9" height="65.8"><title>De mais de 90 a 120: 14.191</title></rect>
<text class="tick" transform="translate(365.5,610.0) rotate(58)" text-anchor="start">De mais de 90 a 120</text>
<rect class="bar" x="406.0" y="551.5" width="70.9" height="38.5"><title>De mais de 120 a 150: 8.302</title></rect>
<text class="tick" transform="translate(441.4,610.0) rotate(58)" text-anchor="start">De mais de 120 a 150</text>
<rect class="bar" x="481.8" y="555.0" width="70.9" height="35.0"><title>De mais de 150 a 200: 7.552</title></rect>
<text class="tick" transform="translate(517.3,610.0) rotate(58)" text-anchor="start">De mais de 150 a 200</text>
<rect class="bar" x="557.7" y="559.1" width="70.9" height="30.9"><title>De mais de 200 a 300: 6.653</title></rect>
<text class="tick" transform="translate(593.1,610.0) rotate(58)" text-anchor="start">De mais de 200 a 300</text>
<rect class="bar" x="633.6" y="576.8" width="70.9" height="13.2"><title>De mais de 300 a 400: 2.851</title></rect>
<text class="tick" transform="translate(669.0,610.0) rotate(58)" text-anchor="start">De mais de 300 a 400</text>
<rect class="bar" x="709.4" y="583.0" width="70.9" height="7.0"><title>De mais de 400 a 500: 1.511</title></rect>
<text class="tick" transform="translate(744.9,610.0) rotate(58)" text-anchor="start">De mais de 400 a 500</text>
<rect class="bar" x="785.3" y="586.2" width="70.9" height="3.8"><title>De mais de 500 a 600: 828</title></rect>
<text class="tick" transform="translate(820.7,610.0) rotate(58)" text-anchor="start">De mais de 500 a 600</text>
<rect class="bar" x="861.2" y="587.7" width="70.9" height="2.3"><title>De mais de 600 a 700: 487</title></rect>
<text class="tick" transform="translate(896.6,610.0) rotate(58)" text-anchor="start">De mais de 600 a 700</text>
<rect class="bar" x="937.0" y="587.0" width="70.9" height="3.0"><title>De mais de 700 a 1000: 645</title></rect>
<text class="tick" transform="translate(972.5,610.0) rotate(58)" text-anchor="start">De mais de 700 a 1000</text>
<rect class="bar" x="1012.9" y="587.9" width="70.9" height="2.1"><title>De mais de 1000 a 2000: 442</title></rect>
<text class="tick" transform="translate(1048.3,610.0) rotate(58)" text-anchor="start">De mais de 1000 a 2000</text>
<rect class="bar" x="1088.8" y="589.7" width="70.9" height="0.3"><title>De mais de 2000 a 3000: 64</title></rect>
<text class="tick" transform="translate(1124.2,610.0) rotate(58)" text-anchor="start">De mais de 2000 a 3000</text>
<rect class="bar" x="1164.6" y="589.8" width="70.9" height="0.2"><title>Mais de 3000: 34</title></rect>
<text class="tick" transform="translate(1200.1,610.0) rotate(58)" text-anchor="start">Mais de 3000</text>
<text x="640.0" y="788.0" class="axis" text-anchor="middle">Faixas de renda publicadas (unidade publicada pela fonte)</text>
<text class="axis" transform="translate(28,358.0) rotate(-90)" text-anchor="middle">Pessoas fisicas notificadas</text>
<text x="34.0" y="828.0" class="note">Eixo X: faixas de renda publicadas pela fonte (unidade publicada pela fonte). Eixo Y: pessoas fisicas notificadas.</text>
</svg>
