<svg xmlns="http://www.w3.org/2000/svg" width="1600" height="1120" viewBox="0 0 1600 1120">
<style>
text{font-family:Arial,Helvetica,sans-serif;fill:#202124}
.title{font-size:42px;font-weight:700}
.subtitle{font-size:24px;fill:#4a4f55}
.axis{font-size:24px;fill:#30343a}
.tick{font-size:20px;fill:#4a4f55}
.note{font-size:20px;fill:#4a4f55}
.bar{fill:#2f6f9f}
.bar:hover{fill:#c85a28}
.grid{stroke:#d8dde3;stroke-width:1}
.frame{stroke:#7f8790;stroke-width:1;fill:none}
</style>
<rect x="0" y="0" width="1600" height="1120" fill="#ffffff"/>
<text x="44.0" y="58.0" class="title">IRPF 1979 - Brasil - rendimento bruto total</text>
<text x="44.0" y="94.0" class="subtitle">Brasil. Ministerio da Fazenda. Anuario Economico-Fiscal 1981. Brasilia: Ministerio da Fazenda, 1981.</text>
<line x1="130" y1="690.0" x2="1380" y2="690.0" class="grid"/>
<text x="114.0" y="697.0" class="tick" text-anchor="end">0</text>
<line x1="130" y1="513.3" x2="1380" y2="513.3" class="grid"/>
<text x="114.0" y="520.3" class="tick" text-anchor="end">500k</text>
<line x1="130" y1="336.7" x2="1380" y2="336.7" class="grid"/>
<text x="114.0" y="343.7" class="tick" text-anchor="end">1M</text>
<line x1="130" y1="160.0" x2="1380" y2="160.0" class="grid"/>
<text x="114.0" y="167.0" class="tick" text-anchor="end">1.5M</text>
<rect x="130" y="160" width="1250" height="530" class="frame"/>
<rect class="bar" x="132.5" y="271.8" width="84.3" height="418.2"><title>Ate 94.200: 1.183.568</title></rect>
<text class="tick" transform="translate(174.6,720.0) rotate(58)" text-anchor="start">Ate 94.200</text>
<rect class="bar" x="221.8" y="160.1" width="84.3" height="529.9"><title>94.201 a 133.400: 1.499.743</title></rect>
<text class="tick" transform="translate(263.9,720.0) rotate(58)" text-anchor="start">94.201 a 133.400</text>
<rect class="bar" x="311.1" y="269.6" width="84.3" height="420.4"><title>133.401 a 174.000: 1.189.708</title></rect>
<text class="tick" transform="translate(353.2,720.0) rotate(58)" text-anchor="start">133.401 a 174.000</text>
<rect class="bar" x="400.4" y="322.8" width="84.3" height="367.2"><title>174.001 a 227.600: 1.039.271</title></rect>
<text class="tick" transform="translate(442.5,720.0) rotate(58)" text-anchor="start">174.001 a 227.600</text>
<rect class="bar" x="489.6" y="422.1" width="84.3" height="267.9"><title>227.601 a 297.200: 758.157</title></rect>
<text class="tick" transform="translate(531.8,720.0) rotate(58)" text-anchor="start">227.601 a 297.200</text>
<rect class="bar" x="578.9" y="488.8" width="84.3" height="201.2"><title>297.201 a 391.500: 569.419</title></rect>
<text class="tick" transform="translate(621.1,720.0) rotate(58)" text-anchor="start">297.201 a 391.500</text>
<rect class="bar" x="668.2" y="555.3" width="84.3" height="134.7"><title>391.501 a 507.500: 381.181</title></rect>
<text class="tick" transform="translate(710.4,720.0) rotate(58)" text-anchor="start">391.501 a 507.500</text>
<rect class="bar" x="757.5" y="591.2" width="84.3" height="98.8"><title>507.501 a 667.000: 279.680</title></rect>
<text class="tick" transform="translate(799.6,720.0) rotate(58)" text-anchor="start">507.501 a 667.000</text>
<rect class="bar" x="846.8" y="627.1" width="84.3" height="62.9"><title>667.001 a 870.000: 178.045</title></rect>
<text class="tick" transform="translate(888.9,720.0) rotate(58)" text-anchor="start">667.001 a 870.000</text>
<rect class="bar" x="936.1" y="632.6" width="84.3" height="57.4"><title>870.001 a 1.377.500: 162.440</title></rect>
<text class="tick" transform="translate(978.2,720.0) rotate(58)" text-anchor="start">870.001 a 1.377.500</text>
<rect class="bar" x="1025.4" y="673.3" width="84.3" height="16.7"><title>1.377.501 a 2.030.000: 47.294</title></rect>
<text class="tick" transform="translate(1067.5,720.0) rotate(58)" text-anchor="start">1.377.501 a 2.030.000</text>
<rect class="bar" x="1114.6" y="685.6" width="84.3" height="4.4"><title>2.030.001 a 2.755.000: 12.480</title></rect>
<text class="tick" transform="translate(1156.8,720.0) rotate(58)" text-anchor="start">2.030.001 a 2.755.000</text>
<rect class="bar" x="1203.9" y="687.1" width="84.3" height="2.9"><title>2.755.001 a 8.265.000: 8.346</title></rect>
<text class="tick" transform="translate(1246.1,720.0) rotate(58)" text-anchor="start">2.755.001 a 8.265.000</text>
<rect class="bar" x="1293.2" y="689.8" width="84.3" height="0.2"><title>Acima de 8.265.000: 654</title></rect>
<text class="tick" transform="translate(1335.4,720.0) rotate(58)" text-anchor="start">Acima de 8.265.000</text>
<text x="755.0" y="955.0" class="axis" text-anchor="middle">Faixas de renda publicadas (Cr$ 1,00)</text>
<text class="axis" transform="translate(38,425.0) rotate(-90)" text-anchor="middle">Declarantes</text>
<text x="44.0" y="1012.0" class="note">Eixo X: faixas de renda publicadas pela fonte (Cr$ 1,00). Eixo Y: declarantes. O AEF 1981 cobre ano-base 1979/exercicio</text>
<text x="44.0" y="1038.0" class="note">1980, mas nao traz a matriz nacional detalhada de renda liquida por classes de renda liquida que foi usada nos AEF</text>
<text x="44.0" y="1064.0" class="note">1976-1979. As tabelas 1 e 2 classificam os declarantes por classes de rendimento bruto total; a tabela 2 decompoe a</text>
</svg>
