<svg xmlns="http://www.w3.org/2000/svg" width="1600" height="1120" viewBox="0 0 1600 1120">
<style>
text{font-family:Arial,Helvetica,sans-serif;fill:#202124}
.title{font-size:42px;font-weight:700}
.subtitle{font-size:24px;fill:#4a4f55}
.axis{font-size:24px;fill:#30343a}
.tick{font-size:20px;fill:#4a4f55}
.note{font-size:20px;fill:#4a4f55}
.bar{fill:#2f6f9f}
.bar:hover{fill:#c85a28}
.grid{stroke:#d8dde3;stroke-width:1}
.frame{stroke:#7f8790;stroke-width:1;fill:none}
</style>
<rect x="0" y="0" width="1600" height="1120" fill="#ffffff"/>
<text x="44.0" y="58.0" class="title">IRPF 2014 - Brasil - rendimento total mensal em salarios minimos</text>
<text x="44.0" y="94.0" class="subtitle">Brasil. Ministerio da Fazenda. Secretaria da Receita Federal do Brasil. Centro de Estudos Tributarios e Aduaneiros.</text>
<text x="44.0" y="124.0" class="subtitle">Grandes Numeros IRPF - ano-calendario 2014, exercic...</text>
<line x1="130" y1="690.0" x2="1380" y2="690.0" class="grid"/>
<text x="114.0" y="697.0" class="tick" text-anchor="end">0</text>
<line x1="130" y1="584.0" x2="1380" y2="584.0" class="grid"/>
<text x="114.0" y="591.0" class="tick" text-anchor="end">2M</text>
<line x1="130" y1="478.0" x2="1380" y2="478.0" class="grid"/>
<text x="114.0" y="485.0" class="tick" text-anchor="end">4M</text>
<line x1="130" y1="372.0" x2="1380" y2="372.0" class="grid"/>
<text x="114.0" y="379.0" class="tick" text-anchor="end">6M</text>
<line x1="130" y1="266.0" x2="1380" y2="266.0" class="grid"/>
<text x="114.0" y="273.0" class="tick" text-anchor="end">8M</text>
<line x1="130" y1="160.0" x2="1380" y2="160.0" class="grid"/>
<text x="114.0" y="167.0" class="tick" text-anchor="end">10M</text>
<rect x="130" y="160" width="1250" height="530" class="frame"/>
<rect class="bar" x="132.5" y="627.8" width="68.5" height="62.2"><title>Ate 1/2: 1.173.389</title></rect>
<text class="tick" transform="translate(166.8,720.0) rotate(58)" text-anchor="start">Ate 1/2</text>
<rect class="bar" x="206.0" y="663.4" width="68.5" height="26.6"><title>De 1/2 a 1: 501.551</title></rect>
<text class="tick" transform="translate(240.3,720.0) rotate(58)" text-anchor="start">De 1/2 a 1</text>
<rect class="bar" x="279.6" y="633.4" width="68.5" height="56.6"><title>De 1 a 2: 1.067.416</title></rect>
<text class="tick" transform="translate(313.8,720.0) rotate(58)" text-anchor="start">De 1 a 2</text>
<rect class="bar" x="353.1" y="544.5" width="68.5" height="145.5"><title>De 2 a 3: 2.744.805</title></rect>
<text class="tick" transform="translate(387.4,720.0) rotate(58)" text-anchor="start">De 2 a 3</text>
<rect class="bar" x="426.6" y="255.8" width="68.5" height="434.2"><title>De 3 a 5: 8.192.562</title></rect>
<text class="tick" transform="translate(460.9,720.0) rotate(58)" text-anchor="start">De 3 a 5</text>
<rect class="bar" x="500.1" y="457.0" width="68.5" height="233.0"><title>De 5 a 7: 4.396.494</title></rect>
<text class="tick" transform="translate(534.4,720.0) rotate(58)" text-anchor="start">De 5 a 7</text>
<rect class="bar" x="573.7" y="509.6" width="68.5" height="180.4"><title>De 7 a 10: 3.403.789</title></rect>
<text class="tick" transform="translate(607.9,720.0) rotate(58)" text-anchor="start">De 7 a 10</text>
<rect class="bar" x="647.2" y="554.1" width="68.5" height="135.9"><title>De 10 a 15: 2.563.655</title></rect>
<text class="tick" transform="translate(681.5,720.0) rotate(58)" text-anchor="start">De 10 a 15</text>
<rect class="bar" x="720.7" y="627.1" width="68.5" height="62.9"><title>De 15 a 20: 1.187.329</title></rect>
<text class="tick" transform="translate(755.0,720.0) rotate(58)" text-anchor="start">De 15 a 20</text>
<rect class="bar" x="794.3" y="632.4" width="68.5" height="57.6"><title>De 20 a 30: 1.087.582</title></rect>
<text class="tick" transform="translate(828.5,720.0) rotate(58)" text-anchor="start">De 20 a 30</text>
<rect class="bar" x="867.8" y="663.4" width="68.5" height="26.6"><title>De 30 a 40: 501.726</title></rect>
<text class="tick" transform="translate(902.1,720.0) rotate(58)" text-anchor="start">De 30 a 40</text>
<rect class="bar" x="941.3" y="668.8" width="68.5" height="21.2"><title>De 40 a 60: 400.429</title></rect>
<text class="tick" transform="translate(975.6,720.0) rotate(58)" text-anchor="start">De 40 a 60</text>
<rect class="bar" x="1014.9" y="682.4" width="68.5" height="7.6"><title>De 60 a 80: 143.650</title></rect>
<text class="tick" transform="translate(1049.1,720.0) rotate(58)" text-anchor="start">De 60 a 80</text>
<rect class="bar" x="1088.4" y="682.5" width="68.5" height="7.5"><title>De 80 a 160: 142.095</title></rect>
<text class="tick" transform="translate(1122.6,720.0) rotate(58)" text-anchor="start">De 80 a 160</text>
<rect class="bar" x="1161.9" y="688.3" width="68.5" height="1.7"><title>De 160 a 240: 32.626</title></rect>
<text class="tick" transform="translate(1196.2,720.0) rotate(58)" text-anchor="start">De 160 a 240</text>
<rect class="bar" x="1235.4" y="689.3" width="68.5" height="0.7"><title>De 240 a 320: 13.552</title></rect>
<text class="tick" transform="translate(1269.7,720.0) rotate(58)" text-anchor="start">De 240 a 320</text>
<rect class="bar" x="1309.0" y="688.5" width="68.5" height="1.5"><title>Mais de 320: 28.433</title></rect>
<text class="tick" transform="translate(1343.2,720.0) rotate(58)" text-anchor="start">Mais de 320</text>
<text x="755.0" y="955.0" class="axis" text-anchor="middle">Faixas de renda publicadas (salarios minimos mensais)</text>
<text class="axis" transform="translate(38,425.0) rotate(-90)" text-anchor="middle">Declarantes</text>
<text x="44.0" y="1012.0" class="note">Eixo X: faixas de renda publicadas pela fonte (salarios minimos mensais). Eixo Y: declarantes. Fonte nao listada na</text>
<text x="44.0" y="1038.0" class="note">Tabela 4 extraida da tese de Pedro Herculano, cuja serie ali transcrita se encerra em 2013; entra aqui como extensao</text>
<text x="44.0" y="1064.0" class="note">propria da serie a partir das publicacoes oficiais da Receita Federal. A tabela extraida usa a Tabela 9 do GNIRPF 2015,</text>
</svg>
