<svg xmlns="http://www.w3.org/2000/svg" width="1600" height="1120" viewBox="0 0 1600 1120">
<style>
text{font-family:Arial,Helvetica,sans-serif;fill:#202124}
.title{font-size:42px;font-weight:700}
.subtitle{font-size:24px;fill:#4a4f55}
.axis{font-size:24px;fill:#30343a}
.tick{font-size:20px;fill:#4a4f55}
.note{font-size:20px;fill:#4a4f55}
.bar{fill:#2f6f9f}
.bar:hover{fill:#c85a28}
.grid{stroke:#d8dde3;stroke-width:1}
.frame{stroke:#7f8790;stroke-width:1;fill:none}
</style>
<rect x="0" y="0" width="1600" height="1120" fill="#ffffff"/>
<text x="44.0" y="58.0" class="title">IRPF 1980 - Brasil - rendimento bruto total</text>
<text x="44.0" y="94.0" class="subtitle">Brasil. Ministerio da Fazenda. Anuario Economico-Fiscal 1982. Brasilia: Ministerio da Fazenda, 1982.</text>
<line x1="130" y1="690.0" x2="1380" y2="690.0" class="grid"/>
<text x="114.0" y="697.0" class="tick" text-anchor="end">0</text>
<line x1="130" y1="513.3" x2="1380" y2="513.3" class="grid"/>
<text x="114.0" y="520.3" class="tick" text-anchor="end">500k</text>
<line x1="130" y1="336.7" x2="1380" y2="336.7" class="grid"/>
<text x="114.0" y="343.7" class="tick" text-anchor="end">1M</text>
<line x1="130" y1="160.0" x2="1380" y2="160.0" class="grid"/>
<text x="114.0" y="167.0" class="tick" text-anchor="end">1.5M</text>
<rect x="130" y="160" width="1250" height="530" class="frame"/>
<rect class="bar" x="132.5" y="453.5" width="84.3" height="236.5"><title>Ate 146.000: 669.230</title></rect>
<text class="tick" transform="translate(174.6,720.0) rotate(58)" text-anchor="start">Ate 146.000</text>
<rect class="bar" x="221.8" y="344.9" width="84.3" height="345.1"><title>146.001 a 207.000: 976.810</title></rect>
<text class="tick" transform="translate(263.9,720.0) rotate(58)" text-anchor="start">146.001 a 207.000</text>
<rect class="bar" x="311.1" y="260.4" width="84.3" height="429.6"><title>207.001 a 270.000: 1.215.915</title></rect>
<text class="tick" transform="translate(353.2,720.0) rotate(58)" text-anchor="start">207.001 a 270.000</text>
<rect class="bar" x="400.4" y="279.7" width="84.3" height="410.3"><title>270.001 a 353.000: 1.161.145</title></rect>
<text class="tick" transform="translate(442.5,720.0) rotate(58)" text-anchor="start">270.001 a 353.000</text>
<rect class="bar" x="489.6" y="365.6" width="84.3" height="324.4"><title>353.001 a 461.000: 918.148</title></rect>
<text class="tick" transform="translate(531.8,720.0) rotate(58)" text-anchor="start">353.001 a 461.000</text>
<rect class="bar" x="578.9" y="451.3" width="84.3" height="238.7"><title>461.001 a 607.000: 675.610</title></rect>
<text class="tick" transform="translate(621.1,720.0) rotate(58)" text-anchor="start">461.001 a 607.000</text>
<rect class="bar" x="668.2" y="526.1" width="84.3" height="163.9"><title>607.001 a 787.000: 463.860</title></rect>
<text class="tick" transform="translate(710.4,720.0) rotate(58)" text-anchor="start">607.001 a 787.000</text>
<rect class="bar" x="757.5" y="563.6" width="84.3" height="126.4"><title>787.001 a 1.034.000: 357.806</title></rect>
<text class="tick" transform="translate(799.6,720.0) rotate(58)" text-anchor="start">787.001 a 1.034.000</text>
<rect class="bar" x="846.8" y="606.8" width="84.3" height="83.2"><title>1.034.001 a 1.349.000: 235.523</title></rect>
<text class="tick" transform="translate(888.9,720.0) rotate(58)" text-anchor="start">1.034.001 a 1.349.000</text>
<rect class="bar" x="936.1" y="610.7" width="84.3" height="79.3"><title>1.349.001 a 2.135.000: 224.417</title></rect>
<text class="tick" transform="translate(978.2,720.0) rotate(58)" text-anchor="start">1.349.001 a 2.135.000</text>
<rect class="bar" x="1025.4" y="664.1" width="84.3" height="25.9"><title>2.135.001 a 3.146.000: 73.312</title></rect>
<text class="tick" transform="translate(1067.5,720.0) rotate(58)" text-anchor="start">2.135.001 a 3.146.000</text>
<rect class="bar" x="1114.6" y="683.1" width="84.3" height="6.9"><title>3.146.001 a 4.270.000: 19.497</title></rect>
<text class="tick" transform="translate(1156.8,720.0) rotate(58)" text-anchor="start">3.146.001 a 4.270.000</text>
<rect class="bar" x="1203.9" y="685.5" width="84.3" height="4.5"><title>4.270.001 a 12.809.000: 12.690</title></rect>
<text class="tick" transform="translate(1246.1,720.0) rotate(58)" text-anchor="start">4.270.001 a 12.809.000</text>
<rect class="bar" x="1293.2" y="689.7" width="84.3" height="0.3"><title>Acima de 12.809.000: 873</title></rect>
<text class="tick" transform="translate(1335.4,720.0) rotate(58)" text-anchor="start">Acima de 12.809.000</text>
<text x="755.0" y="955.0" class="axis" text-anchor="middle">Faixas de renda publicadas (Cr$ 1,00)</text>
<text class="axis" transform="translate(38,425.0) rotate(-90)" text-anchor="middle">Declarantes</text>
<text x="44.0" y="1012.0" class="note">Eixo X: faixas de renda publicadas pela fonte (Cr$ 1,00). Eixo Y: declarantes. O AEF 1982 cobre ano-base 1980/exercicio</text>
<text x="44.0" y="1038.0" class="note">1981, mas nao traz a matriz nacional detalhada de renda liquida por classes de renda liquida que foi usada nos AEF</text>
<text x="44.0" y="1064.0" class="note">1976-1979. As tabelas 1 e 2 classificam os declarantes por classes de rendimento bruto total; a tabela 2 decompoe a</text>
</svg>
