<svg xmlns="http://www.w3.org/2000/svg" width="1280" height="900" viewBox="0 0 1280 900">
<style>
text{font-family:Arial,Helvetica,sans-serif;fill:#202124}
.title{font-size:28px;font-weight:700}
.subtitle{font-size:16px;fill:#4a4f55}
.axis{font-size:15px;fill:#30343a}
.tick{font-size:13px;fill:#4a4f55}
.note{font-size:13px;fill:#4a4f55}
.bar{fill:#2f6f9f}
.bar:hover{fill:#c85a28}
.grid{stroke:#d8dde3;stroke-width:1}
.frame{stroke:#7f8790;stroke-width:1;fill:none}
</style>
<rect x="0" y="0" width="1280" height="900" fill="#ffffff"/>
<text x="34.0" y="44.0" class="title">IRPF 2024 - Brasil - rendimento total mensal em salarios minimos</text>
<text x="34.0" y="72.0" class="subtitle">Brasil. Ministerio da Fazenda. Secretaria Especial da Receita Federal do Brasil. Centro de Estudos Tributarios e Aduaneiros. Grandes</text>
<text x="34.0" y="92.0" class="subtitle">Numeros IRPF - ano-calendario 2024...</text>
<line x1="100" y1="590.0" x2="1238" y2="590.0" class="grid"/>
<text x="88.0" y="594.0" class="tick" text-anchor="end">0</text>
<line x1="100" y1="435.3" x2="1238" y2="435.3" class="grid"/>
<text x="88.0" y="439.3" class="tick" text-anchor="end">5M</text>
<line x1="100" y1="280.7" x2="1238" y2="280.7" class="grid"/>
<text x="88.0" y="284.7" class="tick" text-anchor="end">10M</text>
<line x1="100" y1="126.0" x2="1238" y2="126.0" class="grid"/>
<text x="88.0" y="130.0" class="tick" text-anchor="end">15M</text>
<rect x="100" y="126" width="1138" height="464" class="frame"/>
<rect class="bar" x="102.5" y="542.6" width="61.9" height="47.4"><title>Ate 1/2: 1.533.178</title></rect>
<text class="tick" transform="translate(133.5,610.0) rotate(58)" text-anchor="start">Ate 1/2</text>
<rect class="bar" x="169.4" y="572.1" width="61.9" height="17.9"><title>De 1/2 a 1: 579.453</title></rect>
<text class="tick" transform="translate(200.4,610.0) rotate(58)" text-anchor="start">De 1/2 a 1</text>
<rect class="bar" x="236.4" y="467.4" width="61.9" height="122.6"><title>De 1 a 2: 3.964.807</title></rect>
<text class="tick" transform="translate(267.4,610.0) rotate(58)" text-anchor="start">De 1 a 2</text>
<rect class="bar" x="303.3" y="318.2" width="61.9" height="271.8"><title>De 2 a 3: 8.787.703</title></rect>
<text class="tick" transform="translate(334.3,610.0) rotate(58)" text-anchor="start">De 2 a 3</text>
<rect class="bar" x="370.3" y="252.6" width="61.9" height="337.4"><title>De 3 a 5: 10.908.688</title></rect>
<text class="tick" transform="translate(401.2,610.0) rotate(58)" text-anchor="start">De 3 a 5</text>
<rect class="bar" x="437.2" y="431.2" width="61.9" height="158.8"><title>De 5 a 7: 5.134.482</title></rect>
<text class="tick" transform="translate(468.2,610.0) rotate(58)" text-anchor="start">De 5 a 7</text>
<rect class="bar" x="504.1" y="471.6" width="61.9" height="118.4"><title>De 7 a 10: 3.828.156</title></rect>
<text class="tick" transform="translate(535.1,610.0) rotate(58)" text-anchor="start">De 7 a 10</text>
<rect class="bar" x="571.1" y="498.6" width="61.9" height="91.4"><title>De 10 a 15: 2.954.484</title></rect>
<text class="tick" transform="translate(602.1,610.0) rotate(58)" text-anchor="start">De 10 a 15</text>
<rect class="bar" x="638.0" y="547.6" width="61.9" height="42.4"><title>De 15 a 20: 1.369.171</title></rect>
<text class="tick" transform="translate(669.0,610.0) rotate(58)" text-anchor="start">De 15 a 20</text>
<rect class="bar" x="705.0" y="552.2" width="61.9" height="37.8"><title>De 20 a 30: 1.220.520</title></rect>
<text class="tick" transform="translate(735.9,610.0) rotate(58)" text-anchor="start">De 20 a 30</text>
<rect class="bar" x="771.9" y="573.6" width="61.9" height="16.4"><title>De 30 a 40: 528.766</title></rect>
<text class="tick" transform="translate(802.9,610.0) rotate(58)" text-anchor="start">De 30 a 40</text>
<rect class="bar" x="838.9" y="577.4" width="61.9" height="12.6"><title>De 40 a 60: 408.200</title></rect>
<text class="tick" transform="translate(869.8,610.0) rotate(58)" text-anchor="start">De 40 a 60</text>
<rect class="bar" x="905.8" y="584.9" width="61.9" height="5.1"><title>De 60 a 80: 163.394</title></rect>
<text class="tick" transform="translate(936.8,610.0) rotate(58)" text-anchor="start">De 60 a 80</text>
<rect class="bar" x="972.7" y="584.3" width="61.9" height="5.7"><title>De 80 a 160: 183.592</title></rect>
<text class="tick" transform="translate(1003.7,610.0) rotate(58)" text-anchor="start">De 80 a 160</text>
<rect class="bar" x="1039.7" y="588.6" width="61.9" height="1.4"><title>De 160 a 240: 46.045</title></rect>
<text class="tick" transform="translate(1070.6,610.0) rotate(58)" text-anchor="start">De 160 a 240</text>
<rect class="bar" x="1106.6" y="589.3" width="61.9" height="0.7"><title>De 240 a 320: 21.081</title></rect>
<text class="tick" transform="translate(1137.6,610.0) rotate(58)" text-anchor="start">De 240 a 320</text>
<rect class="bar" x="1173.6" y="588.6" width="61.9" height="1.4"><title>Mais de 320: 44.779</title></rect>
<text class="tick" transform="translate(1204.5,610.0) rotate(58)" text-anchor="start">Mais de 320</text>
<text x="640.0" y="788.0" class="axis" text-anchor="middle">Faixas de renda publicadas (salarios minimos mensais)</text>
<text class="axis" transform="translate(28,358.0) rotate(-90)" text-anchor="middle">Declarantes</text>
<text x="34.0" y="828.0" class="note">Eixo X: faixas de renda publicadas pela fonte (salarios minimos mensais). Eixo Y: declarantes. Fonte nao listada na Tabela 4 extraida da tese de Pedro</text>
<text x="34.0" y="845.0" class="note">Herculano, cuja serie ali transcrita se encerra em 2013; entra aqui como extensao propria da serie a partir das publicacoes oficiais da Receita</text>
<text x="34.0" y="862.0" class="note">Federal. A fonte e o GNIRPF 2025, ano-calendario 2024, publica...</text>
</svg>
