<svg xmlns="http://www.w3.org/2000/svg" width="1600" height="1120" viewBox="0 0 1600 1120">
<style>
text{font-family:Arial,Helvetica,sans-serif;fill:#202124}
.title{font-size:42px;font-weight:700}
.subtitle{font-size:24px;fill:#4a4f55}
.axis{font-size:24px;fill:#30343a}
.tick{font-size:20px;fill:#4a4f55}
.note{font-size:20px;fill:#4a4f55}
.bar{fill:#2f6f9f}
.bar:hover{fill:#c85a28}
.grid{stroke:#d8dde3;stroke-width:1}
.frame{stroke:#7f8790;stroke-width:1;fill:none}
</style>
<rect x="0" y="0" width="1600" height="1120" fill="#ffffff"/>
<text x="44.0" y="58.0" class="title">IRPF 1998 - Brasil - rendimento tributavel anual</text>
<text x="44.0" y="94.0" class="subtitle">Brasil. Ministerio da Fazenda. Secretaria da Receita Federal. Coordenacao-Geral de Estudos Economico-Tributarios.</text>
<text x="44.0" y="124.0" class="subtitle">Analise Economica da DIRPF 1999. Texto para Discussao...</text>
<line x1="130" y1="690.0" x2="1380" y2="690.0" class="grid"/>
<text x="114.0" y="697.0" class="tick" text-anchor="end">0</text>
<line x1="130" y1="584.0" x2="1380" y2="584.0" class="grid"/>
<text x="114.0" y="591.0" class="tick" text-anchor="end">1M</text>
<line x1="130" y1="478.0" x2="1380" y2="478.0" class="grid"/>
<text x="114.0" y="485.0" class="tick" text-anchor="end">2M</text>
<line x1="130" y1="372.0" x2="1380" y2="372.0" class="grid"/>
<text x="114.0" y="379.0" class="tick" text-anchor="end">3M</text>
<line x1="130" y1="266.0" x2="1380" y2="266.0" class="grid"/>
<text x="114.0" y="273.0" class="tick" text-anchor="end">4M</text>
<line x1="130" y1="160.0" x2="1380" y2="160.0" class="grid"/>
<text x="114.0" y="167.0" class="tick" text-anchor="end">5M</text>
<rect x="130" y="160" width="1250" height="530" class="frame"/>
<rect class="bar" x="132.5" y="183.6" width="108.6" height="506.4"><title>0 a 12: 4.777.068</title></rect>
<text class="tick" transform="translate(186.8,720.0) rotate(58)" text-anchor="start">0 a 12</text>
<rect class="bar" x="246.1" y="408.8" width="108.6" height="281.2"><title>12 a 18: 2.652.812</title></rect>
<text class="tick" transform="translate(300.5,720.0) rotate(58)" text-anchor="start">12 a 18</text>
<rect class="bar" x="359.8" y="569.3" width="108.6" height="120.7"><title>18 a 24: 1.138.450</title></rect>
<text class="tick" transform="translate(414.1,720.0) rotate(58)" text-anchor="start">18 a 24</text>
<rect class="bar" x="473.4" y="616.7" width="108.6" height="73.3"><title>24 a 30: 691.647</title></rect>
<text class="tick" transform="translate(527.7,720.0) rotate(58)" text-anchor="start">24 a 30</text>
<rect class="bar" x="587.0" y="642.9" width="108.6" height="47.1"><title>30 a 36: 444.685</title></rect>
<text class="tick" transform="translate(641.4,720.0) rotate(58)" text-anchor="start">30 a 36</text>
<rect class="bar" x="700.7" y="633.8" width="108.6" height="56.2"><title>36 a 48: 529.960</title></rect>
<text class="tick" transform="translate(755.0,720.0) rotate(58)" text-anchor="start">36 a 48</text>
<rect class="bar" x="814.3" y="658.8" width="108.6" height="31.2"><title>48 a 60: 294.578</title></rect>
<text class="tick" transform="translate(868.6,720.0) rotate(58)" text-anchor="start">48 a 60</text>
<rect class="bar" x="928.0" y="671.5" width="108.6" height="18.5"><title>60 a 72: 174.606</title></rect>
<text class="tick" transform="translate(982.3,720.0) rotate(58)" text-anchor="start">60 a 72</text>
<rect class="bar" x="1041.6" y="671.9" width="108.6" height="18.1"><title>72 a 96: 170.496</title></rect>
<text class="tick" transform="translate(1095.9,720.0) rotate(58)" text-anchor="start">72 a 96</text>
<rect class="bar" x="1155.2" y="681.7" width="108.6" height="8.3"><title>96 a 120: 78.517</title></rect>
<text class="tick" transform="translate(1209.5,720.0) rotate(58)" text-anchor="start">96 a 120</text>
<rect class="bar" x="1268.9" y="679.1" width="108.6" height="10.9"><title>Mais de 120: 103.219</title></rect>
<text class="tick" transform="translate(1323.2,720.0) rotate(58)" text-anchor="start">Mais de 120</text>
<text x="755.0" y="955.0" class="axis" text-anchor="middle">Faixas de renda publicadas (R$ 1,00; fonte rotula faixas em R$ 1.000 anuais)</text>
<text class="axis" transform="translate(38,425.0) rotate(-90)" text-anchor="middle">Declarantes</text>
<text x="44.0" y="1012.0" class="note">Eixo X: faixas de renda publicadas pela fonte (R$ 1,00; fonte rotula faixas em R$ 1.000 anuais). Eixo Y: declarantes.</text>
<text x="44.0" y="1038.0" class="note">Fonte baixada do Wayback Machine, pois a URL original da Receita retornou 404 em 2026-06-04. A tabela por faixa usa a</text>
<text x="44.0" y="1064.0" class="note">classificacao de renda anual tributavel em R$ mil. O numero de declarantes por faixa vem da Tabela II-A/Quadro 05; o</text>
</svg>
