<svg xmlns="http://www.w3.org/2000/svg" width="1600" height="1120" viewBox="0 0 1600 1120">
<style>
text{font-family:Arial,Helvetica,sans-serif;fill:#202124}
.title{font-size:42px;font-weight:700}
.subtitle{font-size:24px;fill:#4a4f55}
.axis{font-size:24px;fill:#30343a}
.tick{font-size:20px;fill:#4a4f55}
.note{font-size:20px;fill:#4a4f55}
.bar{fill:#2f6f9f}
.bar:hover{fill:#c85a28}
.grid{stroke:#d8dde3;stroke-width:1}
.frame{stroke:#7f8790;stroke-width:1;fill:none}
</style>
<rect x="0" y="0" width="1600" height="1120" fill="#ffffff"/>
<text x="44.0" y="58.0" class="title">IRPF 1984 - Brasil - rendimento bruto total</text>
<text x="44.0" y="94.0" class="subtitle">Brasil. Ministerio da Fazenda. Secretaria da Receita Federal. Coordenacao do Sistema de Informacoes Economico-</text>
<text x="44.0" y="124.0" class="subtitle">Fiscais. Anuario Economico-Fiscal 1986. Brasilia: Ministe...</text>
<line x1="130" y1="690.0" x2="1380" y2="690.0" class="grid"/>
<text x="114.0" y="697.0" class="tick" text-anchor="end">0</text>
<line x1="130" y1="513.3" x2="1380" y2="513.3" class="grid"/>
<text x="114.0" y="520.3" class="tick" text-anchor="end">500k</text>
<line x1="130" y1="336.7" x2="1380" y2="336.7" class="grid"/>
<text x="114.0" y="343.7" class="tick" text-anchor="end">1M</text>
<line x1="130" y1="160.0" x2="1380" y2="160.0" class="grid"/>
<text x="114.0" y="167.0" class="tick" text-anchor="end">1.5M</text>
<rect x="130" y="160" width="1250" height="530" class="frame"/>
<rect class="bar" x="132.5" y="515.3" width="84.3" height="174.7"><title>Ate 2.818.000: 494.516</title></rect>
<text class="tick" transform="translate(174.6,720.0) rotate(58)" text-anchor="start">Ate 2.818.000</text>
<rect class="bar" x="221.8" y="509.3" width="84.3" height="180.7"><title>2.818.001 a 3.994.000: 511.315</title></rect>
<text class="tick" transform="translate(263.9,720.0) rotate(58)" text-anchor="start">2.818.001 a 3.994.000</text>
<rect class="bar" x="311.1" y="352.4" width="84.3" height="337.6"><title>3.994.001 a 5.200.000: 955.480</title></rect>
<text class="tick" transform="translate(353.2,720.0) rotate(58)" text-anchor="start">3.994.001 a 5.200.000</text>
<rect class="bar" x="400.4" y="234.9" width="84.3" height="455.1"><title>5.200.001 a 6.802.000: 1.287.935</title></rect>
<text class="tick" transform="translate(442.5,720.0) rotate(58)" text-anchor="start">5.200.001 a 6.802.000</text>
<rect class="bar" x="489.6" y="244.9" width="84.3" height="445.1"><title>6.802.001 a 8.882.000: 1.259.652</title></rect>
<text class="tick" transform="translate(531.8,720.0) rotate(58)" text-anchor="start">6.802.001 a 8.882.000</text>
<rect class="bar" x="578.9" y="348.9" width="84.3" height="341.1"><title>8.882.001 a 11.700.000: 965.299</title></rect>
<text class="tick" transform="translate(621.1,720.0) rotate(58)" text-anchor="start">8.882.001 a 11.700.000</text>
<rect class="bar" x="668.2" y="454.5" width="84.3" height="235.5"><title>11.700.001 a 15.168.000: 666.615</title></rect>
<text class="tick" transform="translate(710.4,720.0) rotate(58)" text-anchor="start">11.700.001 a 15.168.000</text>
<rect class="bar" x="757.5" y="511.4" width="84.3" height="178.6"><title>15.168.001 a 19.926.000: 505.349</title></rect>
<text class="tick" transform="translate(799.6,720.0) rotate(58)" text-anchor="start">15.168.001 a 19.926.000</text>
<rect class="bar" x="846.8" y="569.6" width="84.3" height="120.4"><title>19.926.001 a 26.000.000: 340.891</title></rect>
<text class="tick" transform="translate(888.9,720.0) rotate(58)" text-anchor="start">19.926.001 a 26.000.000</text>
<rect class="bar" x="936.1" y="574.3" width="84.3" height="115.7"><title>26.000.001 a 41.137.000: 327.543</title></rect>
<text class="tick" transform="translate(978.2,720.0) rotate(58)" text-anchor="start">26.000.001 a 41.137.000</text>
<rect class="bar" x="1025.4" y="656.4" width="84.3" height="33.6"><title>41.137.001 a 60.616.000: 95.040</title></rect>
<text class="tick" transform="translate(1067.5,720.0) rotate(58)" text-anchor="start">41.137.001 a 60.616.000</text>
<rect class="bar" x="1114.6" y="679.5" width="84.3" height="10.5"><title>60.616.001 a 89.320.000: 29.739</title></rect>
<text class="tick" transform="translate(1156.8,720.0) rotate(58)" text-anchor="start">60.616.001 a 89.320.000</text>
<rect class="bar" x="1203.9" y="684.5" width="84.3" height="5.5"><title>89.320.001 a 267.960.000: 15.601</title></rect>
<text class="tick" transform="translate(1246.1,720.0) rotate(58)" text-anchor="start">89.320.001 a 267.960.000</text>
<rect class="bar" x="1293.2" y="689.6" width="84.3" height="0.4"><title>Acima de 267.960.000: 1.198</title></rect>
<text class="tick" transform="translate(1335.4,720.0) rotate(58)" text-anchor="start">Acima de 267.960.000</text>
<text x="755.0" y="955.0" class="axis" text-anchor="middle">Faixas de renda publicadas (Cr$ 1,00)</text>
<text class="axis" transform="translate(38,425.0) rotate(-90)" text-anchor="middle">Declarantes</text>
<text x="44.0" y="1012.0" class="note">Eixo X: faixas de renda publicadas pela fonte (Cr$ 1,00). Eixo Y: declarantes. A publicacao traz o fechamento nacional</text>
<text x="44.0" y="1038.0" class="note">por classes de rendimento bruto total. O Quadro 2 decompoe a renda liquida calculada apenas em tres blocos, e nao em</text>
<text x="44.0" y="1064.0" class="note">classes finas de renda liquida. Por isso, a extracao foi preservada como serie paralela por rendimento bruto e nao deve</text>
</svg>
